<?xml version="1.0" encoding="UTF-8"?>
<svg version="1.1" xmlns="http://www.w3.org/2000/svg" width="1150" height="732">
<path d="M0 0 C379.5 0 759 0 1150 0 C1150 241.56 1150 483.12 1150 732 C770.5 732 391 732 0 732 C0 490.44 0 248.88 0 0 Z " fill="#FDFDFD" transform="translate(0,0)"/>
<path d="M0 0 C1.46316888 0.76530996 2.90237431 1.57836786 4.3125 2.4375 C4.96734375 2.83066406 5.6221875 3.22382813 6.296875 3.62890625 C14.1305094 9.3787939 17.9754808 19.02982059 22.3125 27.4375 C23.42172594 29.5729941 24.53110875 31.70840672 25.640625 33.84375 C27.42994732 37.29300406 29.21642562 40.74363343 30.99633789 44.19775391 C34.69760874 51.37193957 38.48179877 58.49077897 42.375 65.5625 C46.63363755 73.2980099 50.759981 81.09205397 54.8125 88.9375 C59.38094362 97.78105079 64.06789861 106.54722109 68.86328125 115.26953125 C72.95902714 122.73887836 76.90052676 130.28237601 80.81933594 137.84570312 C84.1719287 144.29851956 87.61744431 150.69277886 91.125 157.0625 C96.17049152 166.23248061 100.99445613 175.50803439 105.77792358 184.81610107 C110.35901906 193.72511743 115.06008655 202.55744932 119.89453125 211.33203125 C124.21627977 219.19923566 128.34519203 227.16044163 132.46411133 235.13525391 C135.93017082 241.82815653 139.48558014 248.46247756 143.125 255.0625 C148.40502952 264.64434917 153.42152627 274.35089354 158.41201782 284.08529663 C162.96969032 292.97053793 167.59638219 301.80201734 172.51196289 310.49658203 C175.17126885 315.23196921 177.6373644 320.04949913 180.05078125 324.9140625 C184.01562226 332.90440952 188.14595797 340.80004803 192.33178711 348.67651367 C193.51176261 350.89713632 194.68870139 353.11934869 195.86523438 355.34179688 C201.07218724 365.16712542 201.07218724 365.16712542 206.52856445 374.85571289 C207.3125 376.4375 207.3125 376.4375 207.3125 378.4375 C173.6525 378.4375 139.9925 378.4375 105.3125 378.4375 C91.5234375 350.859375 91.5234375 350.859375 90.62548828 349.06323242 C89.97047215 347.75337065 89.31517638 346.44364869 88.65966797 345.1340332 C86.74085717 341.29944359 84.82745831 337.46227561 82.921875 333.62109375 C75.32279165 318.32349415 67.40381696 303.22490027 59.1875 288.25 C55.55159662 281.61711723 52.00686639 274.96736835 48.66699219 268.18017578 C45.01614457 260.78124692 41.22381432 253.45518942 37.4375 246.125 C36.90577682 245.0952858 36.90577682 245.0952858 36.36331177 244.04476929 C32.07789981 235.74903443 27.7624274 227.47031375 23.39111328 219.21948242 C19.22247923 211.32025392 15.15900454 203.36699512 11.08459473 195.41891479 C2.70961247 179.06259473 2.70961247 179.06259473 -5.75 162.75 C-6.13671875 162.00363281 -6.5234375 161.25726563 -6.921875 160.48828125 C-8.3274356 157.81301348 -9.53709984 155.58790016 -11.6875 153.4375 C-11.92758789 153.92814941 -12.16767578 154.41879883 -12.41503906 154.92431641 C-17.1655317 164.60182515 -22.03474933 174.1889396 -27.25 183.625 C-32.44611379 193.03726628 -37.40515171 202.56023641 -42.3125 212.125 C-42.68196747 212.8448407 -43.05143494 213.5646814 -43.43209839 214.30633545 C-44.88162441 217.13063891 -46.33099122 219.95502393 -47.77992249 222.77963257 C-55.04138888 236.92845804 -62.54815658 250.94619603 -70.07275391 264.95629883 C-74.98097755 274.09801464 -79.83239391 283.26674405 -84.6875 292.4375 C-52.0175 292.4375 -19.3475 292.4375 14.3125 292.4375 C21.85729798 306.26962963 29.30385976 320.08678137 36.4375 334.125 C38.08425615 337.35893216 39.7331798 340.59175316 41.3828125 343.82421875 C41.98358612 345.00405838 41.98358612 345.00405838 42.59649658 346.20773315 C44.72562266 350.37783677 46.88403595 354.52989035 49.08496094 358.66259766 C49.76738358 359.94575615 49.76738358 359.94575615 50.46359253 361.25483704 C51.33270505 362.88451448 52.20577456 364.51209028 53.08352661 366.13713074 C53.47732513 366.87538589 53.87112366 367.61364105 54.27685547 368.37426758 C54.79528519 369.33675163 54.79528519 369.33675163 55.32418823 370.31867981 C56.54321627 372.9321276 57.40057134 375.70171403 58.3125 378.4375 C-35.7375 378.4375 -129.7875 378.4375 -226.6875 378.4375 C-225.1338291 373.77648731 -223.4279912 369.77192416 -221.1171875 365.50390625 C-220.76396423 364.84194748 -220.41074097 364.17998871 -220.04681396 363.49797058 C-219.28602856 362.07300268 -218.52322836 360.64910898 -217.75860596 359.22619629 C-215.70955451 355.41249508 -213.67542644 351.59084924 -211.640625 347.76953125 C-211.01705612 346.59957108 -211.01705612 346.59957108 -210.38088989 345.40597534 C-206.28318454 337.70471466 -202.292039 329.95027241 -198.3125 322.1875 C-193.45335118 312.71759193 -188.4857918 303.32164377 -183.33666992 294.00537109 C-178.37822828 284.98109057 -173.70764518 275.81215825 -169.01669312 266.64712524 C-164.23539661 257.31070959 -159.35746795 248.04805869 -154.24389648 238.88793945 C-151.02216439 233.10365159 -148.01903797 227.23963938 -145.125 221.28515625 C-143.6875 218.4375 -143.6875 218.4375 -142.29467773 216.13818359 C-140.58771576 213.26982367 -139.05491728 210.35062464 -137.53515625 207.37890625 C-136.92377296 206.18777029 -136.31227743 204.99669193 -135.70068359 203.80566406 C-135.38282898 203.18534302 -135.06497437 202.56502197 -134.73748779 201.92590332 C-129.33366359 191.38679281 -123.82365152 180.92107168 -118.10766602 170.54711914 C-114.36299753 163.73003067 -110.75678712 156.84784275 -107.1875 149.9375 C-103.15646019 142.13317781 -99.0512848 134.38095124 -94.8125 126.6875 C-89.78583465 117.55907572 -84.9833269 108.32400636 -80.22079468 99.05633545 C-75.66414131 90.19454964 -70.98658586 81.41047111 -66.17578125 72.68359375 C-62.22780247 65.49489442 -58.44390412 58.22786596 -54.6875 50.9375 C-50.25954138 42.35615646 -45.79034135 33.80153778 -41.1875 25.3125 C-40.48560547 24.00829102 -40.48560547 24.00829102 -39.76953125 22.67773438 C-30.94565297 6.50905197 -30.94565297 6.50905197 -25.125 3 C-24.40183594 2.54753906 -23.67867187 2.09507812 -22.93359375 1.62890625 C-15.52403939 -2.30137911 -7.9277082 -3.20131025 0 0 Z " fill="#0D54F3" transform="translate(605.6875,159.5625)"/>
<path d="M0 0 C28.6631319 -0.04416141 57.3262379 -0.08106254 85.98939541 -0.10213066 C89.37989323 -0.10463182 92.77039097 -0.10722049 96.16088867 -0.10986328 C97.17329102 -0.11065021 97.17329102 -0.11065021 98.20614593 -0.11145304 C109.10828714 -0.12013545 120.01040706 -0.1358934 130.91253567 -0.15430559 C142.11441815 -0.17306505 153.3162934 -0.18397994 164.51819175 -0.18817699 C170.80367392 -0.19077716 177.08910796 -0.19685969 183.37457466 -0.21146011 C189.29981993 -0.22511129 195.2249976 -0.22920749 201.15025711 -0.22621536 C203.31607494 -0.22676217 205.48189521 -0.23069443 207.64769936 -0.23841095 C222.76143374 -0.28958383 237.33953295 0.06048385 251.875 4.6875 C252.71595215 4.94950195 253.5569043 5.21150391 254.42333984 5.48144531 C287.72302937 16.10673709 316.59133791 35.3100236 337 64 C337.62914307 64.87277588 337.62914307 64.87277588 338.27099609 65.76318359 C349.12540025 80.9510159 357.47103345 97.1766648 363 115 C363.37850098 116.16208984 363.37850098 116.16208984 363.76464844 117.34765625 C374.51225196 150.45399491 375.64411502 184.82209595 370 219 C369.8767334 219.82757813 369.7534668 220.65515625 369.62646484 221.5078125 C362.90395934 266.28851853 337.56777188 310.91813242 301.29956055 338.31469727 C269.82802186 361.14470028 235.04160096 371.74285798 196.30712891 371.45410156 C194.13642396 371.45296951 191.96571749 371.4536139 189.79501343 371.45587158 C183.978181 371.4570057 178.16168759 371.43371052 172.34493303 371.40557575 C166.23781649 371.38034175 160.13068969 371.37820294 154.02352905 371.37347412 C142.4927489 371.36110836 130.96212289 371.3283745 119.43141019 371.28807616 C106.28969666 371.24315775 93.14797525 371.22132123 80.00620389 371.20129442 C53.00403114 371.15963528 26.00206932 371.0863641 -1 371 C-1 343.28 -1 315.56 -1 287 C8.11423584 286.97812622 8.11423584 286.97812622 17.41259766 286.95581055 C37.50123941 286.9054455 57.58980426 286.83899608 77.67836952 286.76428509 C89.8565344 286.71938529 102.03467041 286.67995723 114.21289062 286.65356445 C124.83167236 286.63053726 135.45036231 286.59708658 146.06907117 286.55129844 C151.68773009 286.52742989 157.30629846 286.50865943 162.92500687 286.50238609 C168.22244354 286.49630639 173.51964872 286.47620289 178.81699944 286.44572449 C180.75262146 286.43699032 182.6882738 286.433212 184.62391472 286.43499184 C195.52758179 286.44184721 205.41210151 285.85395072 216 283 C216.77105387 282.80810939 217.54210773 282.61621878 218.33652687 282.4185133 C240.46716664 276.72991344 259.06574273 262.85629801 271.3125 243.5 C274.64702378 237.83937697 277.45865661 232.05252808 280 226 C280.49628906 224.92234375 280.99257813 223.8446875 281.50390625 222.734375 C283.25400865 218.64470868 284.20393375 214.46506416 285.125 210.125 C285.29386719 209.37347656 285.46273438 208.62195313 285.63671875 207.84765625 C291.86314579 179.26492425 287.3914418 149.92397155 272 125 C258.10613646 104.47238605 237.03005248 93.1748921 213.24700236 88.36209655 C203.46551534 86.52854685 193.83298258 86.42513708 183.91113281 86.45410156 C181.88849605 86.44533937 179.86586619 86.43484454 177.84324646 86.42277527 C172.42099349 86.39521836 166.99897006 86.3915038 161.5766573 86.39249516 C155.88452994 86.38933966 150.19250206 86.36366729 144.50042725 86.34051514 C133.75234845 86.30015182 123.00433003 86.27966096 112.2561872 86.26654124 C100.00680956 86.25060413 87.75753367 86.21216067 75.50821543 86.17194796 C50.33882438 86.08981846 25.16949816 86.03852813 0 86 C0 57.62 0 29.24 0 0 Z " fill="#0C54F3" transform="translate(48,167)"/>
<path d="M0 0 C34.98 0 69.96 0 106 0 C113.87568242 16.87646233 113.87568242 16.87646233 116.39453125 22.65625 C116.8051178 23.5963089 116.8051178 23.5963089 117.22399902 24.55535889 C118.08861581 26.53613405 118.95058626 28.51804738 119.8125 30.5 C120.4252039 31.90469675 121.03808096 33.30931799 121.65112305 34.71386719 C124.37930698 40.96735376 127.09875195 47.22461025 129.8125 53.484375 C130.64577483 55.40627537 131.47910556 57.3281515 132.3125 59.25 C132.70896729 60.16450928 133.10543457 61.07901855 133.51391602 62.02124023 C136.57250254 69.05858931 139.71188721 76.05759386 142.87475586 83.04858398 C146.01182335 89.99328566 149.02761632 96.98337308 152 104 C153.74880723 108.11670126 155.54240056 112.19883661 157.4375 116.25 C159.57752641 120.91564316 161.36771297 125.62994554 163.0078125 130.4921875 C163.94028959 133.05274773 163.94028959 133.05274773 165.4609375 135.4140625 C167.79516162 139.33603297 169.16011915 143.5675064 170.71875 147.84375 C171.91899798 150.80045844 173.35311063 153.27759104 175 156 C176.03546547 158.32404473 177.02761923 160.65007981 178 163 C178.71678341 164.67792479 179.43568866 166.35494411 180.15625 168.03125 C181.71875 171.67708333 183.28125 175.32291667 184.84375 178.96875 C185.21628906 179.83757812 185.58882812 180.70640625 185.97265625 181.6015625 C186.82780068 183.59798333 187.67990882 185.59570438 188.53125 187.59375 C189.60886716 190.09290468 190.70092874 192.58219927 191.80981445 195.06738281 C195.37908947 203.09029922 198.87066257 211.14714141 202.36450195 219.203125 C203.24996939 221.24236354 204.1373548 223.2807703 205.02661133 225.31835938 C206.31798396 228.2779431 207.60299802 231.24021568 208.88671875 234.203125 C209.48355721 235.56573456 209.48355721 235.56573456 210.092453 236.95587158 C210.45986099 237.80735779 210.82726898 238.65884399 211.20581055 239.53613281 C211.52905807 240.27953918 211.8523056 241.02294556 212.18534851 241.78887939 C213.06349833 244.17234667 213.56359381 246.50102131 214 249 C214.66 249 215.32 249 216 249 C216.37253906 247.79859375 216.74507812 246.5971875 217.12890625 245.359375 C219.31693951 238.81434583 222.14582947 232.55447385 224.9375 226.25 C225.54941833 224.86006116 226.16106312 223.47000187 226.77246094 222.07983398 C232.9135106 208.13401121 239.12083573 194.21731176 245.31640625 180.2956543 C256.685648 154.74185176 267.9355187 129.13590234 279.02905273 103.46118164 C283.64506123 92.7894079 288.32029762 82.14397169 293 71.5 C298.38017533 59.26121592 303.74898583 47.01789409 309.0625 34.75 C309.53751953 33.65365234 310.01253906 32.55730469 310.50195312 31.42773438 C315.02801548 20.96317689 319.50870672 10.47968432 324 0 C357.33 0 390.66 0 425 0 C423.6072277 4.17831689 422.26552632 7.73515871 420.35546875 11.6328125 C419.58686523 13.21449219 419.58686523 13.21449219 418.80273438 14.828125 C418.00319336 16.46007812 418.00319336 16.46007812 417.1875 18.125 C414.10448018 24.42061032 411.07876 30.69726377 408.43359375 37.19140625 C406.22570663 42.58816827 403.66173541 47.69496295 400.875 52.8125 C400.01561946 54.40093461 399.15879841 55.99075693 398.3046875 57.58203125 C397.7475708 58.60647339 397.7475708 58.60647339 397.17919922 59.65161133 C395.96573278 62.06824356 394.91695868 64.53435334 393.86428833 67.0242157 C392.1977086 70.8340578 390.33504253 74.55045252 388.5 78.28125 C388.06788712 79.16347733 387.63577423 80.04570465 387.19056702 80.95466614 C386.27039504 82.83319898 385.34952468 84.71138986 384.42800903 86.58926392 C382.02962855 91.47792531 379.63794806 96.36986184 377.24609375 101.26171875 C376.7803746 102.21402878 376.31465546 103.16633881 375.83482361 104.14750671 C369.13099791 117.86136176 362.55953713 131.63187843 356.12841797 145.47583008 C355.84029236 146.09600006 355.55216675 146.71617004 355.25531006 147.35513306 C354.66926305 148.61659893 354.08336581 149.8781344 353.49761963 151.13973999 C348.242508 162.44851813 342.81225138 173.66723946 337.33999634 184.87225342 C332.64313763 194.49433855 328.03491345 204.1460625 323.5625 213.875 C318.15462583 225.6376624 312.51213036 237.2752782 306.82400513 248.90423584 C301.94225938 258.88952659 297.14061219 268.89984406 292.5 279 C287.11736146 290.71515448 281.50045175 302.30541482 275.83279419 313.88464355 C270.74377512 324.28560142 265.76944741 334.72728508 260.9375 345.25 C244.53220917 380.73261735 244.53220917 380.73261735 229 387 C228.34902344 387.29777344 227.69804688 387.59554688 227.02734375 387.90234375 C217.02043097 391.96122239 205.57875891 391.05547425 195.6484375 387.26171875 C191.60414682 385.3350139 188.32025325 382.98966526 185 380 C184.38382813 379.46375 183.76765625 378.9275 183.1328125 378.375 C177.30797394 372.97514966 173.99473204 366.73483009 171.1875 359.375 C169.60392793 355.26020642 167.68919878 351.48687142 165.5625 347.625 C161.63427103 340.46846392 158.21481722 333.10609781 154.8125 325.6875 C150.49166685 316.27017804 146.04285897 306.93978883 141.375 297.6875 C137.03223327 289.07885236 132.78357379 280.43759406 128.65136719 271.72607422 C125.58291156 265.27364332 122.46673609 258.84632968 119.32421875 252.4296875 C118.90512741 251.57385574 118.48603607 250.71802399 118.054245 249.83625793 C117.18600345 248.06337044 116.31775278 246.29048741 115.44949341 244.51760864 C108.82703048 230.99207383 102.2891317 217.44508523 96.01220703 203.75512695 C91.17308516 193.25556435 86.08936215 182.87997593 81 172.5 C74.81499414 159.8851395 68.73092279 147.24251745 62.87109375 134.47265625 C58.38920827 124.74479795 53.70603767 115.12093978 49 105.5 C43.09613611 93.42926376 37.30909265 81.32013366 31.69140625 69.11328125 C27.88712374 60.86268366 23.9684678 52.67233001 20 44.5 C15.43781336 35.093291 10.92173819 25.66763053 6.50244141 16.19287109 C5.9210684 14.94697935 5.33840171 13.70169041 4.75439453 12.45703125 C3.9494833 10.74013557 3.15037212 9.02052427 2.3515625 7.30078125 C1.89604004 6.32278564 1.44051758 5.34479004 0.97119141 4.3371582 C0 2 0 2 0 0 Z " fill="#0D54F3" transform="translate(710,166)"/>
<path d="M0 0 C1.0169313 2.65498232 1.13022151 3.69155375 0.00390625 6.359375 C-0.47175781 7.14828125 -0.94742187 7.9371875 -1.4375 8.75 C-1.91058594 9.54921875 -2.38367188 10.3484375 -2.87109375 11.171875 C-3.24363281 11.77515625 -3.61617188 12.3784375 -4 13 C-4.66 13 -5.32 13 -6 13 C-4.58707905 8.1725201 -2.57025846 4.2837641 0 0 Z " fill="#2B67F7" transform="translate(445,411)"/>
<path d="M0 0 C0.66 0 1.32 0 2 0 C0.55049545 3.7910119 -1.15172566 7.3874638 -3 11 C-3.66 11 -4.32 11 -5 11 C-3.78065514 6.96678237 -2.44045073 3.45730521 0 0 Z " fill="#2764F7" transform="translate(481,343)"/>
<path d="M0 0 C1.28222189 3.03070628 0.98589446 4.03596914 -0.25 7.1875 C-2 10 -2 10 -5 11 C-3.77472971 6.94718288 -2.30119506 3.55639236 0 0 Z " fill="#2B69F7" transform="translate(436,428)"/>
<path d="M0 0 C2.6244603 2.3745117 4.50692877 4.77810946 6 8 C5.07421875 10.16015625 5.07421875 10.16015625 4 12 C3.3291288 10.3767313 2.66342971 8.75132422 2 7.125 C1.62875 6.22007812 1.2575 5.31515625 0.875 4.3828125 C0 2 0 2 0 0 Z " fill="#165EF8" transform="translate(629,192)"/>
<path d="M0 0 C0.6875 1.6875 0.6875 1.6875 1 4 C-0.3125 6.75 -0.3125 6.75 -2 9 C-2.66 9 -3.32 9 -4 9 C-2.94124926 5.59687262 -1.99097846 2.98646769 0 0 Z " fill="#2867F6" transform="translate(425,449)"/>
<path d="M0 0 C-1 3 -1 3 -3.25 4.125 C-5.8273678 4.94507157 -8.33619068 5.54334697 -11 6 C-3.8 0 -3.8 0 0 0 Z " fill="#DEEAFD" transform="translate(335,515)"/>
<path d="M0 0 C0.6875 1.6875 0.6875 1.6875 1 4 C-0.3125 6.75 -0.3125 6.75 -2 9 C-2.66 9 -3.32 9 -4 9 C-2.94124926 5.59687262 -1.99097846 2.98646769 0 0 Z " fill="#2D69F6" transform="translate(416,466)"/>
<path d="M0 0 C0.66 0.33 1.32 0.66 2 1 C0.75453595 4.73639216 -0.63404953 5.18756513 -4 7 C-4.66 6.34 -5.32 5.68 -6 5 C-4.02 3.35 -2.04 1.7 0 0 Z " fill="#2465F6" transform="translate(300,432)"/>
<path d="M0 0 C0.6875 1.6875 0.6875 1.6875 1 4 C-0.3125 6.75 -0.3125 6.75 -2 9 C-2.66 9 -3.32 9 -4 9 C-2.94124926 5.59687262 -1.99097846 2.98646769 0 0 Z " fill="#326CF6" transform="translate(475,354)"/>
<path d="M0 0 C0.66 1.32 1.32 2.64 2 4 C0.75 6.75 0.75 6.75 -1 9 C-1.66 9 -2.32 9 -3 9 C-2.01 6.03 -1.02 3.06 0 0 Z " fill="#356EF6" transform="translate(934,394)"/>
<path d="M0 0 C0.88492145 2.47778006 1.11637742 3.66056586 0.25 6.1875 C-1 8 -1 8 -4 9 C-2.94124926 5.59687262 -1.99097846 2.98646769 0 0 Z " fill="#326BF5" transform="translate(458,386)"/>
<path d="M0 0 C0.6875 1.6875 0.6875 1.6875 1 4 C-0.3125 6.75 -0.3125 6.75 -2 9 C-2.66 9 -3.32 9 -4 9 C-2.80100302 5.9168649 -1.52299523 2.93720508 0 0 Z " fill="#2360F6" transform="translate(465,373)"/>
</svg>
